{
    "asset" : {
        "generator" : "Khronos glTF Blender I/O v1.8.19",
        "version" : "2.0"
    },
    "scene" : 0,
    "scenes" : [
        {
            "name" : "Scene",
            "nodes" : [
                0
            ]
        }
    ],
    "nodes" : [
        {
            "mesh" : 0,
            "name" : "Plane",
            "rotation" : [
                0.011786594055593014,
                0.7187249064445496,
                -0.012187407352030277,
                0.6950878500938416
            ],
            "scale" : [
                -0.1815175712108612,
                0.5787830948829651,
                0.9995566606521606
            ],
            "translation" : [
                4.435912609100342,
                0.07475920766592026,
                1.6150226593017578
            ]
        }
    ],
    "materials" : [
        {
            "doubleSided" : true,
            "name" : "ChairRunnerColor",
            "pbrMetallicRoughness" : {
                "baseColorFactor" : [
                    0.02901054173707962,
                    0.8000000715255737,
                    0,
                    1
                ],
                "metallicFactor" : 0,
                "roughnessFactor" : 0.5
            }
        }
    ],
    "meshes" : [
        {
            "name" : "Plane.002",
            "primitives" : [
                {
                    "attributes" : {
                        "POSITION" : 0,
                        "NORMAL" : 1,
                        "TEXCOORD_0" : 2
                    },
                    "indices" : 3,
                    "material" : 0
                }
            ]
        }
    ],
    "accessors" : [
        {
            "bufferView" : 0,
            "componentType" : 5126,
            "count" : 8,
            "max" : [
                1.0284006595611572,
                1.0090289115905762,
                0.15491405129432678
            ],
            "min" : [
                -1,
                -1,
                -0.0009673279128037393
            ],
            "type" : "VEC3"
        },
        {
            "bufferView" : 1,
            "componentType" : 5126,
            "count" : 8,
            "type" : "VEC3"
        },
        {
            "bufferView" : 2,
            "componentType" : 5126,
            "count" : 8,
            "type" : "VEC2"
        },
        {
            "bufferView" : 3,
            "componentType" : 5123,
            "count" : 24,
            "type" : "SCALAR"
        }
    ],
    "bufferViews" : [
        {
            "buffer" : 0,
            "byteLength" : 96,
            "byteOffset" : 0
        },
        {
            "buffer" : 0,
            "byteLength" : 96,
            "byteOffset" : 96
        },
        {
            "buffer" : 0,
            "byteLength" : 64,
            "byteOffset" : 192
        },
        {
            "buffer" : 0,
            "byteLength" : 48,
            "byteOffset" : 256
        }
    ],
    "buffers" : [
        {
            "byteLength" : 304,
            "uri" : "PartyFascinationScene.bin"
        }
    ]
}
