{
    "asset" : {
        "generator" : "Khronos glTF Blender I/O v1.8.19",
        "version" : "2.0"
    },
    "scene" : 0,
    "scenes" : [
        {
            "name" : "Scene",
            "nodes" : [
                5,
                6,
                7,
                8,
                9,
                10
            ]
        }
    ],
    "nodes" : [
        {
            "name" : "Cylinder.001"
        },
        {
            "name" : "Cylinder.002"
        },
        {
            "name" : "Plane.001"
        },
        {
            "children" : [
                0,
                1,
                2
            ],
            "name" : "RootNode"
        },
        {
            "children" : [
                3
            ],
            "name" : "51ffead178e1423a8a76200fa8aa197f.fbx"
        },
        {
            "children" : [
                4
            ],
            "name" : "Sketchfab_model"
        },
        {
            "mesh" : 0,
            "name" : "Chair.001"
        },
        {
            "mesh" : 1,
            "name" : "TableCloth"
        },
        {
            "mesh" : 2,
            "name" : "ChairRunner"
        },
        {
            "mesh" : 3,
            "name" : "TableRunner"
        },
        {
            "mesh" : 4,
            "name" : "Plate"
        }
    ],
    "materials" : [
        {
            "doubleSided" : true,
            "name" : "TableCloth-material",
            "pbrMetallicRoughness" : {
                "baseColorFactor" : [
                    0.27442455291748047,
                    0.7367145419120789,
                    0.8000000715255737,
                    1
                ],
                "metallicFactor" : 0
            }
        },
        {
            "doubleSided" : true,
            "name" : "charirunnertexture",
            "pbrMetallicRoughness" : {
                "baseColorFactor" : [
                    0.07991933822631836,
                    0.8000000715255737,
                    0,
                    1
                ],
                "metallicFactor" : 0,
                "roughnessFactor" : 0.5
            }
        },
        {
            "doubleSided" : true,
            "name" : "Plate",
            "pbrMetallicRoughness" : {
                "baseColorFactor" : [
                    0.800000011920929,
                    0.800000011920929,
                    0.800000011920929,
                    1
                ],
                "metallicFactor" : 0
            }
        }
    ],
    "meshes" : [
        {
            "name" : "Cube",
            "primitives" : [
                {
                    "attributes" : {
                        "POSITION" : 0,
                        "NORMAL" : 1,
                        "TEXCOORD_0" : 2
                    },
                    "indices" : 3
                }
            ]
        },
        {
            "name" : "Plane.001",
            "primitives" : [
                {
                    "attributes" : {
                        "POSITION" : 4,
                        "NORMAL" : 5,
                        "TEXCOORD_0" : 6
                    },
                    "indices" : 7,
                    "material" : 0
                }
            ]
        },
        {
            "name" : "Plane.003",
            "primitives" : [
                {
                    "attributes" : {
                        "POSITION" : 8,
                        "NORMAL" : 9,
                        "TEXCOORD_0" : 10
                    },
                    "indices" : 11,
                    "material" : 1
                }
            ]
        },
        {
            "name" : "Plane.002",
            "primitives" : [
                {
                    "attributes" : {
                        "POSITION" : 12,
                        "NORMAL" : 13,
                        "TEXCOORD_0" : 14
                    },
                    "indices" : 15
                }
            ]
        },
        {
            "name" : "Cylinder",
            "primitives" : [
                {
                    "attributes" : {
                        "POSITION" : 16,
                        "NORMAL" : 17,
                        "TEXCOORD_0" : 18
                    },
                    "indices" : 19,
                    "material" : 2
                }
            ]
        }
    ],
    "accessors" : [
        {
            "bufferView" : 0,
            "componentType" : 5126,
            "count" : 3062,
            "max" : [
                19.808597564697266,
                52.6107177734375,
                131.50990295410156
            ],
            "min" : [
                -19.19141960144043,
                -33.41234588623047,
                91.50990295410156
            ],
            "type" : "VEC3"
        },
        {
            "bufferView" : 1,
            "componentType" : 5126,
            "count" : 3062,
            "type" : "VEC3"
        },
        {
            "bufferView" : 2,
            "componentType" : 5126,
            "count" : 3062,
            "type" : "VEC2"
        },
        {
            "bufferView" : 3,
            "componentType" : 5123,
            "count" : 6660,
            "type" : "SCALAR"
        },
        {
            "bufferView" : 4,
            "componentType" : 5126,
            "count" : 361,
            "max" : [
                75.82174682617188,
                36.54825973510742,
                76.08961486816406
            ],
            "min" : [
                -76.57826232910156,
                -39.6517448425293,
                -76.31039428710938
            ],
            "type" : "VEC3"
        },
        {
            "bufferView" : 5,
            "componentType" : 5126,
            "count" : 361,
            "type" : "VEC3"
        },
        {
            "bufferView" : 6,
            "componentType" : 5126,
            "count" : 361,
            "type" : "VEC2"
        },
        {
            "bufferView" : 7,
            "componentType" : 5123,
            "count" : 1944,
            "type" : "SCALAR"
        },
        {
            "bufferView" : 8,
            "componentType" : 5126,
            "count" : 12,
            "max" : [
                20.158945083618164,
                46.737159729003906,
                131.66534423828125
            ],
            "min" : [
                -19.84105682373047,
                29.70020294189453,
                125.81534576416016
            ],
            "type" : "VEC3"
        },
        {
            "bufferView" : 9,
            "componentType" : 5126,
            "count" : 12,
            "type" : "VEC3"
        },
        {
            "bufferView" : 10,
            "componentType" : 5126,
            "count" : 12,
            "type" : "VEC2"
        },
        {
            "bufferView" : 11,
            "componentType" : 5123,
            "count" : 30,
            "type" : "SCALAR"
        },
        {
            "bufferView" : 12,
            "componentType" : 5126,
            "count" : 24,
            "max" : [
                7.499996185302734,
                37.35312271118164,
                36.968624114990234
            ],
            "min" : [
                -7.499996185302734,
                36.74312210083008,
                -35.531375885009766
            ],
            "type" : "VEC3"
        },
        {
            "bufferView" : 13,
            "componentType" : 5126,
            "count" : 24,
            "type" : "VEC3"
        },
        {
            "bufferView" : 14,
            "componentType" : 5126,
            "count" : 24,
            "type" : "VEC2"
        },
        {
            "bufferView" : 15,
            "componentType" : 5123,
            "count" : 36,
            "type" : "SCALAR"
        },
        {
            "bufferView" : 16,
            "componentType" : 5126,
            "count" : 288,
            "max" : [
                27.049732208251953,
                37.40361785888672,
                7.500000476837158
            ],
            "min" : [
                12.049732208251953,
                36.40361785888672,
                -7.500000476837158
            ],
            "type" : "VEC3"
        },
        {
            "bufferView" : 17,
            "componentType" : 5126,
            "count" : 288,
            "type" : "VEC3"
        },
        {
            "bufferView" : 18,
            "componentType" : 5126,
            "count" : 288,
            "type" : "VEC2"
        },
        {
            "bufferView" : 19,
            "componentType" : 5123,
            "count" : 474,
            "type" : "SCALAR"
        }
    ],
    "bufferViews" : [
        {
            "buffer" : 0,
            "byteLength" : 36744,
            "byteOffset" : 0
        },
        {
            "buffer" : 0,
            "byteLength" : 36744,
            "byteOffset" : 36744
        },
        {
            "buffer" : 0,
            "byteLength" : 24496,
            "byteOffset" : 73488
        },
        {
            "buffer" : 0,
            "byteLength" : 13320,
            "byteOffset" : 97984
        },
        {
            "buffer" : 0,
            "byteLength" : 4332,
            "byteOffset" : 111304
        },
        {
            "buffer" : 0,
            "byteLength" : 4332,
            "byteOffset" : 115636
        },
        {
            "buffer" : 0,
            "byteLength" : 2888,
            "byteOffset" : 119968
        },
        {
            "buffer" : 0,
            "byteLength" : 3888,
            "byteOffset" : 122856
        },
        {
            "buffer" : 0,
            "byteLength" : 144,
            "byteOffset" : 126744
        },
        {
            "buffer" : 0,
            "byteLength" : 144,
            "byteOffset" : 126888
        },
        {
            "buffer" : 0,
            "byteLength" : 96,
            "byteOffset" : 127032
        },
        {
            "buffer" : 0,
            "byteLength" : 60,
            "byteOffset" : 127128
        },
        {
            "buffer" : 0,
            "byteLength" : 288,
            "byteOffset" : 127188
        },
        {
            "buffer" : 0,
            "byteLength" : 288,
            "byteOffset" : 127476
        },
        {
            "buffer" : 0,
            "byteLength" : 192,
            "byteOffset" : 127764
        },
        {
            "buffer" : 0,
            "byteLength" : 72,
            "byteOffset" : 127956
        },
        {
            "buffer" : 0,
            "byteLength" : 3456,
            "byteOffset" : 128028
        },
        {
            "buffer" : 0,
            "byteLength" : 3456,
            "byteOffset" : 131484
        },
        {
            "buffer" : 0,
            "byteLength" : 2304,
            "byteOffset" : 134940
        },
        {
            "buffer" : 0,
            "byteLength" : 948,
            "byteOffset" : 137244
        }
    ],
    "buffers" : [
        {
            "byteLength" : 138192,
            "uri" : "PFScene2.bin"
        }
    ]
}
