{
    "asset" : {
        "generator" : "Khronos glTF Blender I/O v1.8.19",
        "version" : "2.0"
    },
    "scene" : 0,
    "scenes" : [
        {
            "name" : "Scene",
            "nodes" : [
                5,
                6,
                7,
                8,
                9,
                10,
                11
            ]
        }
    ],
    "nodes" : [
        {
            "name" : "Cylinder.001"
        },
        {
            "name" : "Cylinder.002"
        },
        {
            "name" : "Plane.001"
        },
        {
            "children" : [
                0,
                1,
                2
            ],
            "name" : "RootNode"
        },
        {
            "children" : [
                3
            ],
            "name" : "51ffead178e1423a8a76200fa8aa197f.fbx"
        },
        {
            "children" : [
                4
            ],
            "name" : "Sketchfab_model"
        },
        {
            "mesh" : 0,
            "name" : "TableCloth"
        },
        {
            "mesh" : 1,
            "name" : "ChairRunner"
        },
        {
            "mesh" : 2,
            "name" : "Plate"
        },
        {
            "mesh" : 3,
            "name" : "Chair.001"
        },
        {
            "mesh" : 4,
            "name" : "BasicChair"
        },
        {
            "mesh" : 5,
            "name" : "TableRunner"
        }
    ],
    "materials" : [
        {
            "doubleSided" : true,
            "name" : "TableCloth-material",
            "pbrMetallicRoughness" : {
                "baseColorFactor" : [
                    0.27442455291748047,
                    0.7367145419120789,
                    0.8000000715255737,
                    1
                ],
                "metallicFactor" : 0
            }
        },
        {
            "doubleSided" : true,
            "name" : "charirunnertexture",
            "pbrMetallicRoughness" : {
                "baseColorFactor" : [
                    0.07991933822631836,
                    0.8000000715255737,
                    0,
                    1
                ],
                "metallicFactor" : 0,
                "roughnessFactor" : 0.5
            }
        },
        {
            "doubleSided" : true,
            "name" : "Plate",
            "pbrMetallicRoughness" : {
                "baseColorFactor" : [
                    0.800000011920929,
                    0.800000011920929,
                    0.800000011920929,
                    1
                ],
                "metallicFactor" : 0
            }
        }
    ],
    "meshes" : [
        {
            "name" : "Plane.001",
            "primitives" : [
                {
                    "attributes" : {
                        "POSITION" : 0,
                        "NORMAL" : 1,
                        "TEXCOORD_0" : 2
                    },
                    "indices" : 3,
                    "material" : 0
                }
            ]
        },
        {
            "name" : "Plane.003",
            "primitives" : [
                {
                    "attributes" : {
                        "POSITION" : 4,
                        "NORMAL" : 5,
                        "TEXCOORD_0" : 6
                    },
                    "indices" : 7,
                    "material" : 1
                }
            ]
        },
        {
            "name" : "Cylinder",
            "primitives" : [
                {
                    "attributes" : {
                        "POSITION" : 8,
                        "NORMAL" : 9,
                        "TEXCOORD_0" : 10
                    },
                    "indices" : 11,
                    "material" : 2
                }
            ]
        },
        {
            "name" : "Cube.005",
            "primitives" : [
                {
                    "attributes" : {
                        "POSITION" : 12,
                        "NORMAL" : 13,
                        "TEXCOORD_0" : 14
                    },
                    "indices" : 15
                }
            ]
        },
        {
            "name" : "Cube.004",
            "primitives" : [
                {
                    "attributes" : {
                        "POSITION" : 16,
                        "NORMAL" : 17,
                        "TEXCOORD_0" : 18
                    },
                    "indices" : 19
                }
            ]
        },
        {
            "name" : "Plane.004",
            "primitives" : [
                {
                    "attributes" : {
                        "POSITION" : 20,
                        "NORMAL" : 21,
                        "TEXCOORD_0" : 22
                    },
                    "indices" : 23
                }
            ]
        }
    ],
    "accessors" : [
        {
            "bufferView" : 0,
            "componentType" : 5126,
            "count" : 361,
            "max" : [
                75.82174682617188,
                36.54825973510742,
                76.08961486816406
            ],
            "min" : [
                -76.57826232910156,
                -39.6517448425293,
                -76.31039428710938
            ],
            "type" : "VEC3"
        },
        {
            "bufferView" : 1,
            "componentType" : 5126,
            "count" : 361,
            "type" : "VEC3"
        },
        {
            "bufferView" : 2,
            "componentType" : 5126,
            "count" : 361,
            "type" : "VEC2"
        },
        {
            "bufferView" : 3,
            "componentType" : 5123,
            "count" : 1944,
            "type" : "SCALAR"
        },
        {
            "bufferView" : 4,
            "componentType" : 5126,
            "count" : 44,
            "max" : [
                20.166179656982422,
                46.73878860473633,
                131.6753387451172
            ],
            "min" : [
                -19.85103988647461,
                29.70020294189453,
                125.80816650390625
            ],
            "type" : "VEC3"
        },
        {
            "bufferView" : 5,
            "componentType" : 5126,
            "count" : 44,
            "type" : "VEC3"
        },
        {
            "bufferView" : 6,
            "componentType" : 5126,
            "count" : 44,
            "type" : "VEC2"
        },
        {
            "bufferView" : 7,
            "componentType" : 5123,
            "count" : 132,
            "type" : "SCALAR"
        },
        {
            "bufferView" : 8,
            "componentType" : 5126,
            "count" : 670,
            "max" : [
                27.049732208251953,
                37.40361785888672,
                7.500000953674316
            ],
            "min" : [
                12.049732208251953,
                36.40361785888672,
                -7.5
            ],
            "type" : "VEC3"
        },
        {
            "bufferView" : 9,
            "componentType" : 5126,
            "count" : 670,
            "type" : "VEC3"
        },
        {
            "bufferView" : 10,
            "componentType" : 5126,
            "count" : 670,
            "type" : "VEC2"
        },
        {
            "bufferView" : 11,
            "componentType" : 5123,
            "count" : 1140,
            "type" : "SCALAR"
        },
        {
            "bufferView" : 12,
            "componentType" : 5126,
            "count" : 3648,
            "max" : [
                19.500003814697266,
                50.45988082885742,
                131.7238006591797
            ],
            "min" : [
                -19.499998092651367,
                -31.774826049804688,
                91.72377014160156
            ],
            "type" : "VEC3"
        },
        {
            "bufferView" : 13,
            "componentType" : 5126,
            "count" : 3648,
            "type" : "VEC3"
        },
        {
            "bufferView" : 14,
            "componentType" : 5126,
            "count" : 3648,
            "type" : "VEC2"
        },
        {
            "bufferView" : 15,
            "componentType" : 5123,
            "count" : 5472,
            "type" : "SCALAR"
        },
        {
            "bufferView" : 16,
            "componentType" : 5126,
            "count" : 292,
            "max" : [
                19.28391456604004,
                50.686729431152344,
                132.47755432128906
            ],
            "min" : [
                -19.7331600189209,
                -31.516817092895508,
                92.46776580810547
            ],
            "type" : "VEC3"
        },
        {
            "bufferView" : 17,
            "componentType" : 5126,
            "count" : 292,
            "type" : "VEC3"
        },
        {
            "bufferView" : 18,
            "componentType" : 5126,
            "count" : 292,
            "type" : "VEC2"
        },
        {
            "bufferView" : 19,
            "componentType" : 5123,
            "count" : 1512,
            "type" : "SCALAR"
        },
        {
            "bufferView" : 20,
            "componentType" : 5126,
            "count" : 2048,
            "max" : [
                7.648677349090576,
                36.803680419921875,
                68.72332763671875
            ],
            "min" : [
                -7.944151878356934,
                5.293698310852051,
                -68.01020050048828
            ],
            "type" : "VEC3"
        },
        {
            "bufferView" : 21,
            "componentType" : 5126,
            "count" : 2048,
            "type" : "VEC3"
        },
        {
            "bufferView" : 22,
            "componentType" : 5126,
            "count" : 2048,
            "type" : "VEC2"
        },
        {
            "bufferView" : 23,
            "componentType" : 5123,
            "count" : 12276,
            "type" : "SCALAR"
        }
    ],
    "bufferViews" : [
        {
            "buffer" : 0,
            "byteLength" : 4332,
            "byteOffset" : 0
        },
        {
            "buffer" : 0,
            "byteLength" : 4332,
            "byteOffset" : 4332
        },
        {
            "buffer" : 0,
            "byteLength" : 2888,
            "byteOffset" : 8664
        },
        {
            "buffer" : 0,
            "byteLength" : 3888,
            "byteOffset" : 11552
        },
        {
            "buffer" : 0,
            "byteLength" : 528,
            "byteOffset" : 15440
        },
        {
            "buffer" : 0,
            "byteLength" : 528,
            "byteOffset" : 15968
        },
        {
            "buffer" : 0,
            "byteLength" : 352,
            "byteOffset" : 16496
        },
        {
            "buffer" : 0,
            "byteLength" : 264,
            "byteOffset" : 16848
        },
        {
            "buffer" : 0,
            "byteLength" : 8040,
            "byteOffset" : 17112
        },
        {
            "buffer" : 0,
            "byteLength" : 8040,
            "byteOffset" : 25152
        },
        {
            "buffer" : 0,
            "byteLength" : 5360,
            "byteOffset" : 33192
        },
        {
            "buffer" : 0,
            "byteLength" : 2280,
            "byteOffset" : 38552
        },
        {
            "buffer" : 0,
            "byteLength" : 43776,
            "byteOffset" : 40832
        },
        {
            "buffer" : 0,
            "byteLength" : 43776,
            "byteOffset" : 84608
        },
        {
            "buffer" : 0,
            "byteLength" : 29184,
            "byteOffset" : 128384
        },
        {
            "buffer" : 0,
            "byteLength" : 10944,
            "byteOffset" : 157568
        },
        {
            "buffer" : 0,
            "byteLength" : 3504,
            "byteOffset" : 168512
        },
        {
            "buffer" : 0,
            "byteLength" : 3504,
            "byteOffset" : 172016
        },
        {
            "buffer" : 0,
            "byteLength" : 2336,
            "byteOffset" : 175520
        },
        {
            "buffer" : 0,
            "byteLength" : 3024,
            "byteOffset" : 177856
        },
        {
            "buffer" : 0,
            "byteLength" : 24576,
            "byteOffset" : 180880
        },
        {
            "buffer" : 0,
            "byteLength" : 24576,
            "byteOffset" : 205456
        },
        {
            "buffer" : 0,
            "byteLength" : 16384,
            "byteOffset" : 230032
        },
        {
            "buffer" : 0,
            "byteLength" : 24552,
            "byteOffset" : 246416
        }
    ],
    "buffers" : [
        {
            "byteLength" : 270968,
            "uri" : "PFScene9.bin"
        }
    ]
}
