{
    "asset" : {
        "generator" : "Khronos glTF Blender I/O v1.8.19",
        "version" : "2.0"
    },
    "scene" : 0,
    "scenes" : [
        {
            "name" : "Scene",
            "nodes" : [
                5,
                6,
                7,
                8,
                9,
                10
            ]
        }
    ],
    "nodes" : [
        {
            "name" : "Cylinder.001"
        },
        {
            "name" : "Cylinder.002"
        },
        {
            "name" : "Plane.001"
        },
        {
            "children" : [
                0,
                1,
                2
            ],
            "name" : "RootNode"
        },
        {
            "children" : [
                3
            ],
            "name" : "51ffead178e1423a8a76200fa8aa197f.fbx"
        },
        {
            "children" : [
                4
            ],
            "name" : "Sketchfab_model"
        },
        {
            "mesh" : 0,
            "name" : "TableCloth"
        },
        {
            "mesh" : 1,
            "name" : "TableRunner"
        },
        {
            "mesh" : 2,
            "name" : "Plate"
        },
        {
            "mesh" : 3,
            "name" : "Chair.001"
        },
        {
            "mesh" : 4,
            "name" : "ChairRunner"
        }
    ],
    "materials" : [
        {
            "doubleSided" : true,
            "name" : "TableCloth-material",
            "pbrMetallicRoughness" : {
                "baseColorFactor" : [
                    0.27442455291748047,
                    0.7367145419120789,
                    0.8000000715255737,
                    1
                ],
                "metallicFactor" : 0
            }
        },
        {
            "doubleSided" : true,
            "name" : "Plate",
            "pbrMetallicRoughness" : {
                "baseColorFactor" : [
                    0.800000011920929,
                    0.800000011920929,
                    0.800000011920929,
                    1
                ],
                "metallicFactor" : 0
            }
        },
        {
            "doubleSided" : true,
            "name" : "ChairRunner",
            "pbrMetallicRoughness" : {
                "baseColorFactor" : [
                    0.8000000715255737,
                    0.02120222896337509,
                    0.01253114640712738,
                    1
                ],
                "metallicFactor" : 0,
                "roughnessFactor" : 0.5
            }
        }
    ],
    "meshes" : [
        {
            "name" : "Plane.001",
            "primitives" : [
                {
                    "attributes" : {
                        "POSITION" : 0,
                        "NORMAL" : 1,
                        "TEXCOORD_0" : 2
                    },
                    "indices" : 3,
                    "material" : 0
                }
            ]
        },
        {
            "name" : "Plane.002",
            "primitives" : [
                {
                    "attributes" : {
                        "POSITION" : 4,
                        "NORMAL" : 5,
                        "TEXCOORD_0" : 6
                    },
                    "indices" : 7
                }
            ]
        },
        {
            "name" : "Cylinder",
            "primitives" : [
                {
                    "attributes" : {
                        "POSITION" : 8,
                        "NORMAL" : 9,
                        "TEXCOORD_0" : 10
                    },
                    "indices" : 11,
                    "material" : 1
                }
            ]
        },
        {
            "name" : "Cube.005",
            "primitives" : [
                {
                    "attributes" : {
                        "POSITION" : 12,
                        "NORMAL" : 13,
                        "TEXCOORD_0" : 14
                    },
                    "indices" : 15
                }
            ]
        },
        {
            "name" : "Mesh",
            "primitives" : [
                {
                    "attributes" : {
                        "POSITION" : 16,
                        "NORMAL" : 17,
                        "TEXCOORD_0" : 18
                    },
                    "indices" : 19,
                    "material" : 2
                }
            ]
        }
    ],
    "accessors" : [
        {
            "bufferView" : 0,
            "componentType" : 5126,
            "count" : 361,
            "max" : [
                75.82174682617188,
                36.54825973510742,
                76.08961486816406
            ],
            "min" : [
                -76.57826232910156,
                -39.6517448425293,
                -76.31039428710938
            ],
            "type" : "VEC3"
        },
        {
            "bufferView" : 1,
            "componentType" : 5126,
            "count" : 361,
            "type" : "VEC3"
        },
        {
            "bufferView" : 2,
            "componentType" : 5126,
            "count" : 361,
            "type" : "VEC2"
        },
        {
            "bufferView" : 3,
            "componentType" : 5123,
            "count" : 1944,
            "type" : "SCALAR"
        },
        {
            "bufferView" : 4,
            "componentType" : 5126,
            "count" : 24,
            "max" : [
                7.499996185302734,
                37.35312271118164,
                36.968624114990234
            ],
            "min" : [
                -7.499996185302734,
                36.74312210083008,
                -35.531375885009766
            ],
            "type" : "VEC3"
        },
        {
            "bufferView" : 5,
            "componentType" : 5126,
            "count" : 24,
            "type" : "VEC3"
        },
        {
            "bufferView" : 6,
            "componentType" : 5126,
            "count" : 24,
            "type" : "VEC2"
        },
        {
            "bufferView" : 7,
            "componentType" : 5123,
            "count" : 36,
            "type" : "SCALAR"
        },
        {
            "bufferView" : 8,
            "componentType" : 5126,
            "count" : 288,
            "max" : [
                27.049732208251953,
                37.40361785888672,
                7.500000953674316
            ],
            "min" : [
                12.049732208251953,
                36.40361785888672,
                -7.5
            ],
            "type" : "VEC3"
        },
        {
            "bufferView" : 9,
            "componentType" : 5126,
            "count" : 288,
            "type" : "VEC3"
        },
        {
            "bufferView" : 10,
            "componentType" : 5126,
            "count" : 288,
            "type" : "VEC2"
        },
        {
            "bufferView" : 11,
            "componentType" : 5123,
            "count" : 474,
            "type" : "SCALAR"
        },
        {
            "bufferView" : 12,
            "componentType" : 5126,
            "count" : 3648,
            "max" : [
                19.500003814697266,
                50.45988082885742,
                131.7238006591797
            ],
            "min" : [
                -19.499998092651367,
                -31.774826049804688,
                91.72377014160156
            ],
            "type" : "VEC3"
        },
        {
            "bufferView" : 13,
            "componentType" : 5126,
            "count" : 3648,
            "type" : "VEC3"
        },
        {
            "bufferView" : 14,
            "componentType" : 5126,
            "count" : 3648,
            "type" : "VEC2"
        },
        {
            "bufferView" : 15,
            "componentType" : 5123,
            "count" : 5472,
            "type" : "SCALAR"
        },
        {
            "bufferView" : 16,
            "componentType" : 5126,
            "count" : 256,
            "max" : [
                21.0897216796875,
                45.923072814941406,
                137.64263916015625
            ],
            "min" : [
                -21.327260971069336,
                30.37013816833496,
                121.97277069091797
            ],
            "type" : "VEC3"
        },
        {
            "bufferView" : 17,
            "componentType" : 5126,
            "count" : 256,
            "type" : "VEC3"
        },
        {
            "bufferView" : 18,
            "componentType" : 5126,
            "count" : 256,
            "type" : "VEC2"
        },
        {
            "bufferView" : 19,
            "componentType" : 5123,
            "count" : 384,
            "type" : "SCALAR"
        }
    ],
    "bufferViews" : [
        {
            "buffer" : 0,
            "byteLength" : 4332,
            "byteOffset" : 0
        },
        {
            "buffer" : 0,
            "byteLength" : 4332,
            "byteOffset" : 4332
        },
        {
            "buffer" : 0,
            "byteLength" : 2888,
            "byteOffset" : 8664
        },
        {
            "buffer" : 0,
            "byteLength" : 3888,
            "byteOffset" : 11552
        },
        {
            "buffer" : 0,
            "byteLength" : 288,
            "byteOffset" : 15440
        },
        {
            "buffer" : 0,
            "byteLength" : 288,
            "byteOffset" : 15728
        },
        {
            "buffer" : 0,
            "byteLength" : 192,
            "byteOffset" : 16016
        },
        {
            "buffer" : 0,
            "byteLength" : 72,
            "byteOffset" : 16208
        },
        {
            "buffer" : 0,
            "byteLength" : 3456,
            "byteOffset" : 16280
        },
        {
            "buffer" : 0,
            "byteLength" : 3456,
            "byteOffset" : 19736
        },
        {
            "buffer" : 0,
            "byteLength" : 2304,
            "byteOffset" : 23192
        },
        {
            "buffer" : 0,
            "byteLength" : 948,
            "byteOffset" : 25496
        },
        {
            "buffer" : 0,
            "byteLength" : 43776,
            "byteOffset" : 26444
        },
        {
            "buffer" : 0,
            "byteLength" : 43776,
            "byteOffset" : 70220
        },
        {
            "buffer" : 0,
            "byteLength" : 29184,
            "byteOffset" : 113996
        },
        {
            "buffer" : 0,
            "byteLength" : 10944,
            "byteOffset" : 143180
        },
        {
            "buffer" : 0,
            "byteLength" : 3072,
            "byteOffset" : 154124
        },
        {
            "buffer" : 0,
            "byteLength" : 3072,
            "byteOffset" : 157196
        },
        {
            "buffer" : 0,
            "byteLength" : 2048,
            "byteOffset" : 160268
        },
        {
            "buffer" : 0,
            "byteLength" : 768,
            "byteOffset" : 162316
        }
    ],
    "buffers" : [
        {
            "byteLength" : 163084,
            "uri" : "PFScene4.bin"
        }
    ]
}
