{
    "asset" : {
        "generator" : "Khronos glTF Blender I/O v1.8.19",
        "version" : "2.0"
    },
    "scene" : 0,
    "scenes" : [
        {
            "name" : "Scene",
            "nodes" : [
                5,
                6,
                7,
                8,
                9,
                10
            ]
        }
    ],
    "nodes" : [
        {
            "name" : "Cylinder.001"
        },
        {
            "name" : "Cylinder.002"
        },
        {
            "name" : "Plane.001"
        },
        {
            "children" : [
                0,
                1,
                2
            ],
            "name" : "RootNode"
        },
        {
            "children" : [
                3
            ],
            "name" : "51ffead178e1423a8a76200fa8aa197f.fbx"
        },
        {
            "children" : [
                4
            ],
            "name" : "Sketchfab_model"
        },
        {
            "mesh" : 0,
            "name" : "TableCloth",
            "translation" : [
                0,
                -2.7315768420521636e-06,
                0
            ]
        },
        {
            "mesh" : 1,
            "name" : "ChairRunner",
            "translation" : [
                -6.487129211425781,
                38.21867752075195,
                129.71533203125
            ]
        },
        {
            "mesh" : 2,
            "name" : "TableRunner",
            "translation" : [
                0,
                37.35312271118164,
                0.7186241149902344
            ]
        },
        {
            "mesh" : 3,
            "name" : "Plate",
            "translation" : [
                19.549732208251953,
                36.785987854003906,
                0
            ]
        },
        {
            "mesh" : 4,
            "name" : "Chair.001",
            "scale" : [
                0.19499999284744263,
                0.44999998807907104,
                0.20000000298023224
            ],
            "translation" : [
                0,
                5.422424793243408,
                113.96102142333984
            ]
        }
    ],
    "materials" : [
        {
            "doubleSided" : true,
            "name" : "TableCloth-material",
            "pbrMetallicRoughness" : {
                "baseColorFactor" : [
                    0.27442455291748047,
                    0.7367145419120789,
                    0.8000000715255737,
                    1
                ],
                "metallicFactor" : 0
            }
        },
        {
            "doubleSided" : true,
            "name" : "charirunnertexture",
            "pbrMetallicRoughness" : {
                "baseColorFactor" : [
                    0.07991933822631836,
                    0.8000000715255737,
                    0,
                    1
                ],
                "metallicFactor" : 0,
                "roughnessFactor" : 0.5
            }
        },
        {
            "doubleSided" : true,
            "name" : "Plate",
            "pbrMetallicRoughness" : {
                "baseColorFactor" : [
                    0.800000011920929,
                    0.800000011920929,
                    0.800000011920929,
                    1
                ],
                "metallicFactor" : 0
            }
        }
    ],
    "meshes" : [
        {
            "name" : "Plane.001",
            "primitives" : [
                {
                    "attributes" : {
                        "POSITION" : 0,
                        "NORMAL" : 1,
                        "TEXCOORD_0" : 2
                    },
                    "indices" : 3,
                    "material" : 0
                }
            ]
        },
        {
            "name" : "Plane.003",
            "primitives" : [
                {
                    "attributes" : {
                        "POSITION" : 4,
                        "NORMAL" : 5,
                        "TEXCOORD_0" : 6
                    },
                    "indices" : 7,
                    "material" : 1
                }
            ]
        },
        {
            "name" : "Plane.002",
            "primitives" : [
                {
                    "attributes" : {
                        "POSITION" : 8,
                        "NORMAL" : 9,
                        "TEXCOORD_0" : 10
                    },
                    "indices" : 11
                }
            ]
        },
        {
            "name" : "Cylinder",
            "primitives" : [
                {
                    "attributes" : {
                        "POSITION" : 12,
                        "NORMAL" : 13,
                        "TEXCOORD_0" : 14
                    },
                    "indices" : 15,
                    "material" : 2
                }
            ]
        },
        {
            "name" : "Cube.004",
            "primitives" : [
                {
                    "attributes" : {
                        "POSITION" : 16,
                        "NORMAL" : 17,
                        "TEXCOORD_0" : 18
                    },
                    "indices" : 19
                }
            ]
        }
    ],
    "accessors" : [
        {
            "bufferView" : 0,
            "componentType" : 5126,
            "count" : 361,
            "max" : [
                75.82174682617188,
                36.54826354980469,
                76.08961486816406
            ],
            "min" : [
                -76.57826232910156,
                -39.65174102783203,
                -76.31039428710938
            ],
            "type" : "VEC3"
        },
        {
            "bufferView" : 1,
            "componentType" : 5126,
            "count" : 361,
            "type" : "VEC3"
        },
        {
            "bufferView" : 2,
            "componentType" : 5126,
            "count" : 361,
            "type" : "VEC2"
        },
        {
            "bufferView" : 3,
            "componentType" : 5123,
            "count" : 1944,
            "type" : "SCALAR"
        },
        {
            "bufferView" : 4,
            "componentType" : 5126,
            "count" : 12,
            "max" : [
                26.646074295043945,
                8.518482208251953,
                1.95001220703125
            ],
            "min" : [
                -13.353927612304688,
                -8.518474578857422,
                -3.8999862670898438
            ],
            "type" : "VEC3"
        },
        {
            "bufferView" : 5,
            "componentType" : 5126,
            "count" : 12,
            "type" : "VEC3"
        },
        {
            "bufferView" : 6,
            "componentType" : 5126,
            "count" : 12,
            "type" : "VEC2"
        },
        {
            "bufferView" : 7,
            "componentType" : 5123,
            "count" : 30,
            "type" : "SCALAR"
        },
        {
            "bufferView" : 8,
            "componentType" : 5126,
            "count" : 24,
            "max" : [
                7.499996185302734,
                0,
                36.25
            ],
            "min" : [
                -7.499996185302734,
                -0.6100000739097595,
                -36.25
            ],
            "type" : "VEC3"
        },
        {
            "bufferView" : 9,
            "componentType" : 5126,
            "count" : 24,
            "type" : "VEC3"
        },
        {
            "bufferView" : 10,
            "componentType" : 5126,
            "count" : 24,
            "type" : "VEC2"
        },
        {
            "bufferView" : 11,
            "componentType" : 5123,
            "count" : 36,
            "type" : "SCALAR"
        },
        {
            "bufferView" : 12,
            "componentType" : 5126,
            "count" : 288,
            "max" : [
                7.5,
                0.6176300048828125,
                7.500000476837158
            ],
            "min" : [
                -7.5,
                -0.3823699951171875,
                -7.500000476837158
            ],
            "type" : "VEC3"
        },
        {
            "bufferView" : 13,
            "componentType" : 5126,
            "count" : 288,
            "type" : "VEC3"
        },
        {
            "bufferView" : 14,
            "componentType" : 5126,
            "count" : 288,
            "type" : "VEC2"
        },
        {
            "bufferView" : 15,
            "componentType" : 5123,
            "count" : 474,
            "type" : "SCALAR"
        },
        {
            "bufferView" : 16,
            "componentType" : 5126,
            "count" : 132,
            "max" : [
                100,
                103.61641693115234,
                82.74244689941406
            ],
            "min" : [
                -100,
                -96.53499603271484,
                -117.25755310058594
            ],
            "type" : "VEC3"
        },
        {
            "bufferView" : 17,
            "componentType" : 5126,
            "count" : 132,
            "type" : "VEC3"
        },
        {
            "bufferView" : 18,
            "componentType" : 5126,
            "count" : 132,
            "type" : "VEC2"
        },
        {
            "bufferView" : 19,
            "componentType" : 5123,
            "count" : 234,
            "type" : "SCALAR"
        }
    ],
    "bufferViews" : [
        {
            "buffer" : 0,
            "byteLength" : 4332,
            "byteOffset" : 0
        },
        {
            "buffer" : 0,
            "byteLength" : 4332,
            "byteOffset" : 4332
        },
        {
            "buffer" : 0,
            "byteLength" : 2888,
            "byteOffset" : 8664
        },
        {
            "buffer" : 0,
            "byteLength" : 3888,
            "byteOffset" : 11552
        },
        {
            "buffer" : 0,
            "byteLength" : 144,
            "byteOffset" : 15440
        },
        {
            "buffer" : 0,
            "byteLength" : 144,
            "byteOffset" : 15584
        },
        {
            "buffer" : 0,
            "byteLength" : 96,
            "byteOffset" : 15728
        },
        {
            "buffer" : 0,
            "byteLength" : 60,
            "byteOffset" : 15824
        },
        {
            "buffer" : 0,
            "byteLength" : 288,
            "byteOffset" : 15884
        },
        {
            "buffer" : 0,
            "byteLength" : 288,
            "byteOffset" : 16172
        },
        {
            "buffer" : 0,
            "byteLength" : 192,
            "byteOffset" : 16460
        },
        {
            "buffer" : 0,
            "byteLength" : 72,
            "byteOffset" : 16652
        },
        {
            "buffer" : 0,
            "byteLength" : 3456,
            "byteOffset" : 16724
        },
        {
            "buffer" : 0,
            "byteLength" : 3456,
            "byteOffset" : 20180
        },
        {
            "buffer" : 0,
            "byteLength" : 2304,
            "byteOffset" : 23636
        },
        {
            "buffer" : 0,
            "byteLength" : 948,
            "byteOffset" : 25940
        },
        {
            "buffer" : 0,
            "byteLength" : 1584,
            "byteOffset" : 26888
        },
        {
            "buffer" : 0,
            "byteLength" : 1584,
            "byteOffset" : 28472
        },
        {
            "buffer" : 0,
            "byteLength" : 1056,
            "byteOffset" : 30056
        },
        {
            "buffer" : 0,
            "byteLength" : 468,
            "byteOffset" : 31112
        }
    ],
    "buffers" : [
        {
            "byteLength" : 31580,
            "uri" : "PFScene1.bin"
        }
    ]
}
