{
    "asset" : {
        "generator" : "Khronos glTF Blender I/O v1.8.19",
        "version" : "2.0"
    },
    "scene" : 0,
    "scenes" : [
        {
            "name" : "Scene",
            "nodes" : [
                5,
                6,
                7,
                8,
                9,
                10
            ]
        }
    ],
    "nodes" : [
        {
            "name" : "Cylinder.001"
        },
        {
            "name" : "Cylinder.002"
        },
        {
            "name" : "Plane.001"
        },
        {
            "children" : [
                0,
                1,
                2
            ],
            "name" : "RootNode"
        },
        {
            "children" : [
                3
            ],
            "name" : "51ffead178e1423a8a76200fa8aa197f.fbx"
        },
        {
            "children" : [
                4
            ],
            "name" : "Sketchfab_model"
        },
        {
            "mesh" : 0,
            "name" : "TableCloth",
            "translation" : [
                0,
                -2.7315768420521636e-06,
                0
            ]
        },
        {
            "mesh" : 1,
            "name" : "TableRunner",
            "translation" : [
                0,
                37.35312271118164,
                0.7186241149902344
            ]
        },
        {
            "mesh" : 2,
            "name" : "Plate",
            "translation" : [
                19.549732208251953,
                36.785987854003906,
                0
            ]
        },
        {
            "mesh" : 3,
            "name" : "Chair.001",
            "translation" : [
                0,
                2.2870664596557617,
                113.5799560546875
            ]
        },
        {
            "mesh" : 4,
            "name" : "ChairRunner",
            "translation" : [
                -0.0945892333984375,
                38.196720123291016,
                129.75137329101562
            ]
        }
    ],
    "materials" : [
        {
            "doubleSided" : true,
            "name" : "TableCloth-material",
            "pbrMetallicRoughness" : {
                "baseColorFactor" : [
                    0.27442455291748047,
                    0.7367145419120789,
                    0.8000000715255737,
                    1
                ],
                "metallicFactor" : 0
            }
        },
        {
            "doubleSided" : true,
            "name" : "Plate",
            "pbrMetallicRoughness" : {
                "baseColorFactor" : [
                    0.800000011920929,
                    0.800000011920929,
                    0.800000011920929,
                    1
                ],
                "metallicFactor" : 0
            }
        },
        {
            "doubleSided" : true,
            "name" : "ChairRunner",
            "pbrMetallicRoughness" : {
                "baseColorFactor" : [
                    0.8000000715255737,
                    0.02120222896337509,
                    0.01253114640712738,
                    1
                ],
                "metallicFactor" : 0,
                "roughnessFactor" : 0.5
            }
        }
    ],
    "meshes" : [
        {
            "name" : "Plane.001",
            "primitives" : [
                {
                    "attributes" : {
                        "POSITION" : 0,
                        "NORMAL" : 1,
                        "TEXCOORD_0" : 2
                    },
                    "indices" : 3,
                    "material" : 0
                }
            ]
        },
        {
            "name" : "Plane.002",
            "primitives" : [
                {
                    "attributes" : {
                        "POSITION" : 4,
                        "NORMAL" : 5,
                        "TEXCOORD_0" : 6
                    },
                    "indices" : 7
                }
            ]
        },
        {
            "name" : "Cylinder",
            "primitives" : [
                {
                    "attributes" : {
                        "POSITION" : 8,
                        "NORMAL" : 9,
                        "TEXCOORD_0" : 10
                    },
                    "indices" : 11,
                    "material" : 1
                }
            ]
        },
        {
            "name" : "Mesh",
            "primitives" : [
                {
                    "attributes" : {
                        "POSITION" : 12,
                        "NORMAL" : 13,
                        "TEXCOORD_0" : 14
                    },
                    "indices" : 15
                }
            ]
        },
        {
            "name" : "Mesh",
            "primitives" : [
                {
                    "attributes" : {
                        "POSITION" : 16,
                        "NORMAL" : 17,
                        "TEXCOORD_0" : 18
                    },
                    "indices" : 19,
                    "material" : 2
                }
            ]
        }
    ],
    "accessors" : [
        {
            "bufferView" : 0,
            "componentType" : 5126,
            "count" : 361,
            "max" : [
                75.82174682617188,
                36.54826354980469,
                76.08961486816406
            ],
            "min" : [
                -76.57826232910156,
                -39.65174102783203,
                -76.31039428710938
            ],
            "type" : "VEC3"
        },
        {
            "bufferView" : 1,
            "componentType" : 5126,
            "count" : 361,
            "type" : "VEC3"
        },
        {
            "bufferView" : 2,
            "componentType" : 5126,
            "count" : 361,
            "type" : "VEC2"
        },
        {
            "bufferView" : 3,
            "componentType" : 5123,
            "count" : 1944,
            "type" : "SCALAR"
        },
        {
            "bufferView" : 4,
            "componentType" : 5126,
            "count" : 24,
            "max" : [
                7.499996185302734,
                0,
                36.25
            ],
            "min" : [
                -7.499996185302734,
                -0.6100000739097595,
                -36.25
            ],
            "type" : "VEC3"
        },
        {
            "bufferView" : 5,
            "componentType" : 5126,
            "count" : 24,
            "type" : "VEC3"
        },
        {
            "bufferView" : 6,
            "componentType" : 5126,
            "count" : 24,
            "type" : "VEC2"
        },
        {
            "bufferView" : 7,
            "componentType" : 5123,
            "count" : 36,
            "type" : "SCALAR"
        },
        {
            "bufferView" : 8,
            "componentType" : 5126,
            "count" : 288,
            "max" : [
                7.5,
                0.6176300048828125,
                7.500000476837158
            ],
            "min" : [
                -7.5,
                -0.3823699951171875,
                -7.500000476837158
            ],
            "type" : "VEC3"
        },
        {
            "bufferView" : 9,
            "componentType" : 5126,
            "count" : 288,
            "type" : "VEC3"
        },
        {
            "bufferView" : 10,
            "componentType" : 5126,
            "count" : 288,
            "type" : "VEC2"
        },
        {
            "bufferView" : 11,
            "componentType" : 5123,
            "count" : 474,
            "type" : "SCALAR"
        },
        {
            "bufferView" : 12,
            "componentType" : 5126,
            "count" : 3646,
            "max" : [
                19.500003814697266,
                48.17280960083008,
                18.143831253051758
            ],
            "min" : [
                -19.499998092651367,
                -34.061893463134766,
                -21.85617446899414
            ],
            "type" : "VEC3"
        },
        {
            "bufferView" : 13,
            "componentType" : 5126,
            "count" : 3646,
            "type" : "VEC3"
        },
        {
            "bufferView" : 14,
            "componentType" : 5126,
            "count" : 3646,
            "type" : "VEC2"
        },
        {
            "bufferView" : 15,
            "componentType" : 5123,
            "count" : 5472,
            "type" : "SCALAR"
        },
        {
            "bufferView" : 16,
            "componentType" : 5126,
            "count" : 256,
            "max" : [
                21.184309005737305,
                7.726346969604492,
                7.891251564025879
            ],
            "min" : [
                -21.2326717376709,
                -7.826585292816162,
                -7.7786149978637695
            ],
            "type" : "VEC3"
        },
        {
            "bufferView" : 17,
            "componentType" : 5126,
            "count" : 256,
            "type" : "VEC3"
        },
        {
            "bufferView" : 18,
            "componentType" : 5126,
            "count" : 256,
            "type" : "VEC2"
        },
        {
            "bufferView" : 19,
            "componentType" : 5123,
            "count" : 384,
            "type" : "SCALAR"
        }
    ],
    "bufferViews" : [
        {
            "buffer" : 0,
            "byteLength" : 4332,
            "byteOffset" : 0
        },
        {
            "buffer" : 0,
            "byteLength" : 4332,
            "byteOffset" : 4332
        },
        {
            "buffer" : 0,
            "byteLength" : 2888,
            "byteOffset" : 8664
        },
        {
            "buffer" : 0,
            "byteLength" : 3888,
            "byteOffset" : 11552
        },
        {
            "buffer" : 0,
            "byteLength" : 288,
            "byteOffset" : 15440
        },
        {
            "buffer" : 0,
            "byteLength" : 288,
            "byteOffset" : 15728
        },
        {
            "buffer" : 0,
            "byteLength" : 192,
            "byteOffset" : 16016
        },
        {
            "buffer" : 0,
            "byteLength" : 72,
            "byteOffset" : 16208
        },
        {
            "buffer" : 0,
            "byteLength" : 3456,
            "byteOffset" : 16280
        },
        {
            "buffer" : 0,
            "byteLength" : 3456,
            "byteOffset" : 19736
        },
        {
            "buffer" : 0,
            "byteLength" : 2304,
            "byteOffset" : 23192
        },
        {
            "buffer" : 0,
            "byteLength" : 948,
            "byteOffset" : 25496
        },
        {
            "buffer" : 0,
            "byteLength" : 43752,
            "byteOffset" : 26444
        },
        {
            "buffer" : 0,
            "byteLength" : 43752,
            "byteOffset" : 70196
        },
        {
            "buffer" : 0,
            "byteLength" : 29168,
            "byteOffset" : 113948
        },
        {
            "buffer" : 0,
            "byteLength" : 10944,
            "byteOffset" : 143116
        },
        {
            "buffer" : 0,
            "byteLength" : 3072,
            "byteOffset" : 154060
        },
        {
            "buffer" : 0,
            "byteLength" : 3072,
            "byteOffset" : 157132
        },
        {
            "buffer" : 0,
            "byteLength" : 2048,
            "byteOffset" : 160204
        },
        {
            "buffer" : 0,
            "byteLength" : 768,
            "byteOffset" : 162252
        }
    ],
    "buffers" : [
        {
            "byteLength" : 163020,
            "uri" : "PFScene3.bin"
        }
    ]
}
