{
  "accessors": [
    {
      "bufferView": 2,
      "componentType": 5126,
      "count": 396,
      "max": [
        1.0,
        1.0,
        0.15023931860923767
      ],
      "min": [
        -1.0,
        -1.0,
        -0.05023930221796036
      ],
      "type": "VEC3"
    },
    {
      "bufferView": 2,
      "byteOffset": 4752,
      "componentType": 5126,
      "count": 396,
      "max": [
        0.9970570206642151,
        0.9970570206642151,
        0.9967132210731506
      ],
      "min": [
        -0.9970570206642151,
        -0.9970570206642151,
        -0.9967132210731506
      ],
      "type": "VEC3"
    },
    {
      "bufferView": 1,
      "componentType": 5126,
      "count": 396,
      "max": [
        1.0,
        1.0
      ],
      "min": [
        0.0,
        0.010024838149547577
      ],
      "type": "VEC2"
    },
    {
      "bufferView": 0,
      "componentType": 5125,
      "count": 1140,
      "type": "SCALAR"
    },
    {
      "bufferView": 2,
      "byteOffset": 9504,
      "componentType": 5126,
      "count": 547,
      "max": [
        0.4590327739715576,
        0.4590328335762024,
        2.189013957977295
      ],
      "min": [
        -0.4590330719947815,
        -0.4590332508087158,
        -3.810286131056273e-08
      ],
      "type": "VEC3"
    },
    {
      "bufferView": 2,
      "byteOffset": 16068,
      "componentType": 5126,
      "count": 547,
      "max": [
        0.9810775518417358,
        0.9810775518417358,
        0.9832069277763367
      ],
      "min": [
        -0.9810775518417358,
        -0.9810775518417358,
        -0.9785818457603455
      ],
      "type": "VEC3"
    },
    {
      "bufferView": 1,
      "byteOffset": 3168,
      "componentType": 5126,
      "count": 547,
      "max": [
        1.0,
        0.9999999403953552
      ],
      "min": [
        0.0,
        0.0
      ],
      "type": "VEC2"
    },
    {
      "bufferView": 0,
      "byteOffset": 4560,
      "componentType": 5125,
      "count": 2292,
      "type": "SCALAR"
    },
    {
      "bufferView": 2,
      "byteOffset": 22632,
      "componentType": 5126,
      "count": 4234,
      "max": [
        0.7936302423477173,
        0.7941819429397583,
        -0.5844571590423584
      ],
      "min": [
        -0.7710248231887817,
        -0.8104868531227112,
        -1.7986994981765747
      ],
      "type": "VEC3"
    },
    {
      "bufferView": 2,
      "byteOffset": 73440,
      "componentType": 5126,
      "count": 4234,
      "max": [
        0.9999843835830688,
        0.9991133213043213,
        1.0
      ],
      "min": [
        -0.9999653100967407,
        -0.9999896287918091,
        -0.16294293105602264
      ],
      "type": "VEC3"
    },
    {
      "bufferView": 1,
      "byteOffset": 7544,
      "componentType": 5126,
      "count": 4234,
      "max": [
        1.0000001192092896,
        1.0000001192092896
      ],
      "min": [
        0.0,
        0.0
      ],
      "type": "VEC2"
    },
    {
      "bufferView": 0,
      "byteOffset": 13728,
      "componentType": 5125,
      "count": 24576,
      "type": "SCALAR"
    }
  ],
  "asset": {
    "extras": {
      "author": "Rofnay (https://sketchfab.com/Rofnay)",
      "license": "CC-BY-4.0 (http://creativecommons.org/licenses/by/4.0/)",
      "source": "https://sketchfab.com/3d-models/random-round-table-updated-ae6df5aefa564a91a2ed5d406d5601bb",
      "title": "Random Round Table ( Updated )"
    },
    "generator": "Sketchfab-12.65.0",
    "version": "2.0"
  },
  "bufferViews": [
    {
      "buffer": 0,
      "byteLength": 112032,
      "name": "floatBufferViews",
      "target": 34963
    },
    {
      "buffer": 0,
      "byteLength": 41416,
      "byteOffset": 112032,
      "byteStride": 8,
      "name": "floatBufferViews",
      "target": 34962
    },
    {
      "buffer": 0,
      "byteLength": 124248,
      "byteOffset": 153448,
      "byteStride": 12,
      "name": "floatBufferViews",
      "target": 34962
    }
  ],
  "buffers": [
    {
      "byteLength": 277696,
      "uri": "scene.bin"
    }
  ],
  "materials": [
    {
      "doubleSided": true,
      "name": "Body",
      "pbrMetallicRoughness": {
        "baseColorFactor": [
          0.0265923,
          0.00395795,
          0.00395795,
          1.0
        ],
        "metallicFactor": 0.0,
        "roughnessFactor": 0.9980389655193296
      }
    },
    {
      "doubleSided": true,
      "name": "Cloth",
      "pbrMetallicRoughness": {
        "baseColorFactor": [
          0.0380891,
          0.0,
          0.8,
          1.0
        ],
        "metallicFactor": 0.0,
        "roughnessFactor": 0.9852737610567552
      }
    }
  ],
  "meshes": [
    {
      "name": "Cylinder_Body_0",
      "primitives": [
        {
          "attributes": {
            "NORMAL": 1,
            "POSITION": 0,
            "TEXCOORD_0": 2
          },
          "indices": 3,
          "material": 0,
          "mode": 4
        }
      ]
    },
    {
      "name": "Cylinder.001_Body_0",
      "primitives": [
        {
          "attributes": {
            "NORMAL": 5,
            "POSITION": 4,
            "TEXCOORD_0": 6
          },
          "indices": 7,
          "material": 0,
          "mode": 4
        }
      ]
    },
    {
      "name": "Plane_Cloth_0",
      "primitives": [
        {
          "attributes": {
            "NORMAL": 9,
            "POSITION": 8,
            "TEXCOORD_0": 10
          },
          "indices": 11,
          "material": 1,
          "mode": 4
        }
      ]
    }
  ],
  "nodes": [
    {
      "children": [
        1
      ],
      "matrix": [
        1.0,
        0.0,
        0.0,
        0.0,
        0.0,
        2.220446049250313e-16,
        -1.0,
        0.0,
        0.0,
        1.0,
        2.220446049250313e-16,
        0.0,
        0.0,
        0.0,
        0.0,
        1.0
      ],
      "name": "Sketchfab_model"
    },
    {
      "children": [
        2
      ],
      "matrix": [
        0.009999999776482582,
        0.0,
        0.0,
        0.0,
        0.0,
        0.0,
        0.009999999776482582,
        0.0,
        0.0,
        -0.009999999776482582,
        0.0,
        0.0,
        0.0,
        0.0,
        0.0,
        1.0
      ],
      "name": "51ffead178e1423a8a76200fa8aa197f.fbx"
    },
    {
      "children": [
        3,
        5,
        7
      ],
      "name": "RootNode"
    },
    {
      "children": [
        4
      ],
      "matrix": [
        100.0,
        0.0,
        0.0,
        0.0,
        0.0,
        -1.629206793918314e-05,
        -99.99999999999868,
        0.0,
        0.0,
        99.99999999999868,
        -1.629206793918314e-05,
        0.0,
        0.0,
        209.99998474121094,
        0.0,
        1.0
      ],
      "name": "Cylinder"
    },
    {
      "mesh": 0,
      "name": "Cylinder_Body_0"
    },
    {
      "children": [
        6
      ],
      "matrix": [
        100.0,
        0.0,
        0.0,
        0.0,
        0.0,
        -1.629206793918314e-05,
        -99.99999999999868,
        0.0,
        0.0,
        99.99999999999868,
        -1.629206793918314e-05,
        0.0,
        0.0,
        0.0,
        0.0,
        1.0
      ],
      "name": "Cylinder.001"
    },
    {
      "mesh": 1,
      "name": "Cylinder.001_Body_0"
    },
    {
      "children": [
        8
      ],
      "matrix": [
        155.0,
        0.0,
        0.0,
        0.0,
        0.0,
        -2.525270530573387e-05,
        -154.99999999999795,
        0.0,
        0.0,
        99.99999999999868,
        -1.629206793918314e-05,
        0.0,
        0.0,
        287.69439697265625,
        0.0,
        1.0
      ],
      "name": "Plane"
    },
    {
      "mesh": 2,
      "name": "Plane_Cloth_0"
    }
  ],
  "scene": 0,
  "scenes": [
    {
      "name": "Sketchfab_Scene",
      "nodes": [
        0
      ]
    }
  ]
}
