{
    "asset" : {
        "generator" : "Khronos glTF Blender I/O v1.8.19",
        "version" : "2.0"
    },
    "scene" : 0,
    "scenes" : [
        {
            "name" : "Scene",
            "nodes" : [
                5,
                6,
                7,
                8,
                9
            ]
        }
    ],
    "nodes" : [
        {
            "name" : "Cylinder.001"
        },
        {
            "name" : "Cylinder.002"
        },
        {
            "name" : "Plane.001"
        },
        {
            "children" : [
                0,
                1,
                2
            ],
            "name" : "RootNode"
        },
        {
            "children" : [
                3
            ],
            "name" : "51ffead178e1423a8a76200fa8aa197f.fbx"
        },
        {
            "children" : [
                4
            ],
            "name" : "Sketchfab_model"
        },
        {
            "mesh" : 0,
            "name" : "Chair.001"
        },
        {
            "mesh" : 1,
            "name" : "TableCloth"
        },
        {
            "mesh" : 2,
            "name" : "TableRunner"
        },
        {
            "mesh" : 3,
            "name" : "Chairrunner"
        }
    ],
    "materials" : [
        {
            "doubleSided" : true,
            "name" : "TableCloth-material",
            "pbrMetallicRoughness" : {
                "baseColorFactor" : [
                    0.27442455291748047,
                    0.7367145419120789,
                    0.8000000715255737,
                    1
                ],
                "metallicFactor" : 0
            }
        },
        {
            "doubleSided" : true,
            "name" : "charirunnertexture",
            "pbrMetallicRoughness" : {
                "baseColorFactor" : [
                    0.07991933822631836,
                    0.8000000715255737,
                    0,
                    1
                ],
                "metallicFactor" : 0,
                "roughnessFactor" : 0.5
            }
        }
    ],
    "meshes" : [
        {
            "name" : "Cube",
            "primitives" : [
                {
                    "attributes" : {
                        "POSITION" : 0,
                        "NORMAL" : 1,
                        "TEXCOORD_0" : 2
                    },
                    "indices" : 3
                }
            ]
        },
        {
            "name" : "Plane.001",
            "primitives" : [
                {
                    "attributes" : {
                        "POSITION" : 4,
                        "NORMAL" : 5,
                        "TEXCOORD_0" : 6
                    },
                    "indices" : 7,
                    "material" : 0
                }
            ]
        },
        {
            "name" : "Plane",
            "primitives" : [
                {
                    "attributes" : {
                        "POSITION" : 8,
                        "NORMAL" : 9,
                        "TEXCOORD_0" : 10
                    },
                    "indices" : 11
                }
            ]
        },
        {
            "name" : "Plane.003",
            "primitives" : [
                {
                    "attributes" : {
                        "POSITION" : 12,
                        "NORMAL" : 13,
                        "TEXCOORD_0" : 14
                    },
                    "indices" : 15,
                    "material" : 1
                }
            ]
        }
    ],
    "accessors" : [
        {
            "bufferView" : 0,
            "componentType" : 5126,
            "count" : 27574,
            "max" : [
                33.412967681884766,
                125.34117889404297,
                205.0935516357422
            ],
            "min" : [
                -16.587032318115234,
                35.3411750793457,
                155.0935516357422
            ],
            "type" : "VEC3"
        },
        {
            "bufferView" : 1,
            "componentType" : 5126,
            "count" : 27574,
            "type" : "VEC3"
        },
        {
            "bufferView" : 2,
            "componentType" : 5126,
            "count" : 27574,
            "type" : "VEC2"
        },
        {
            "bufferView" : 3,
            "componentType" : 5123,
            "count" : 31488,
            "type" : "SCALAR"
        },
        {
            "bufferView" : 4,
            "componentType" : 5126,
            "count" : 361,
            "max" : [
                101.07384490966797,
                120.28952026367188,
                100.77962493896484
            ],
            "min" : [
                -98.92616271972656,
                20.28951644897461,
                -99.22038269042969
            ],
            "type" : "VEC3"
        },
        {
            "bufferView" : 5,
            "componentType" : 5126,
            "count" : 361,
            "type" : "VEC3"
        },
        {
            "bufferView" : 6,
            "componentType" : 5126,
            "count" : 361,
            "type" : "VEC2"
        },
        {
            "bufferView" : 7,
            "componentType" : 5123,
            "count" : 1944,
            "type" : "SCALAR"
        },
        {
            "bufferView" : 8,
            "componentType" : 5126,
            "count" : 32,
            "max" : [
                13.753520965576172,
                121.82649230957031,
                48.59691619873047
            ],
            "min" : [
                -11.246479034423828,
                120.82649230957031,
                -41.4030876159668
            ],
            "type" : "VEC3"
        },
        {
            "bufferView" : 9,
            "componentType" : 5126,
            "count" : 32,
            "type" : "VEC3"
        },
        {
            "bufferView" : 10,
            "componentType" : 5126,
            "count" : 32,
            "type" : "VEC2"
        },
        {
            "bufferView" : 11,
            "componentType" : 5123,
            "count" : 54,
            "type" : "SCALAR"
        },
        {
            "bufferView" : 12,
            "componentType" : 5126,
            "count" : 15,
            "max" : [
                33.264732360839844,
                117.62104797363281,
                205.6647186279297
            ],
            "min" : [
                -16.721458435058594,
                100.58409118652344,
                198.33473205566406
            ],
            "type" : "VEC3"
        },
        {
            "bufferView" : 13,
            "componentType" : 5126,
            "count" : 15,
            "type" : "VEC3"
        },
        {
            "bufferView" : 14,
            "componentType" : 5126,
            "count" : 15,
            "type" : "VEC2"
        },
        {
            "bufferView" : 15,
            "componentType" : 5123,
            "count" : 30,
            "type" : "SCALAR"
        }
    ],
    "bufferViews" : [
        {
            "buffer" : 0,
            "byteLength" : 330888,
            "byteOffset" : 0
        },
        {
            "buffer" : 0,
            "byteLength" : 330888,
            "byteOffset" : 330888
        },
        {
            "buffer" : 0,
            "byteLength" : 220592,
            "byteOffset" : 661776
        },
        {
            "buffer" : 0,
            "byteLength" : 62976,
            "byteOffset" : 882368
        },
        {
            "buffer" : 0,
            "byteLength" : 4332,
            "byteOffset" : 945344
        },
        {
            "buffer" : 0,
            "byteLength" : 4332,
            "byteOffset" : 949676
        },
        {
            "buffer" : 0,
            "byteLength" : 2888,
            "byteOffset" : 954008
        },
        {
            "buffer" : 0,
            "byteLength" : 3888,
            "byteOffset" : 956896
        },
        {
            "buffer" : 0,
            "byteLength" : 384,
            "byteOffset" : 960784
        },
        {
            "buffer" : 0,
            "byteLength" : 384,
            "byteOffset" : 961168
        },
        {
            "buffer" : 0,
            "byteLength" : 256,
            "byteOffset" : 961552
        },
        {
            "buffer" : 0,
            "byteLength" : 108,
            "byteOffset" : 961808
        },
        {
            "buffer" : 0,
            "byteLength" : 180,
            "byteOffset" : 961916
        },
        {
            "buffer" : 0,
            "byteLength" : 180,
            "byteOffset" : 962096
        },
        {
            "buffer" : 0,
            "byteLength" : 120,
            "byteOffset" : 962276
        },
        {
            "buffer" : 0,
            "byteLength" : 60,
            "byteOffset" : 962396
        }
    ],
    "buffers" : [
        {
            "byteLength" : 962456,
            "uri" : "tableTest2.bin"
        }
    ]
}
