{
    "asset" : {
        "generator" : "Khronos glTF Blender I/O v1.8.19",
        "version" : "2.0"
    },
    "scene" : 0,
    "scenes" : [
        {
            "name" : "Scene",
            "nodes" : [
                5,
                6,
                7,
                8,
                9
            ]
        }
    ],
    "nodes" : [
        {
            "name" : "Cylinder.001"
        },
        {
            "name" : "Cylinder.002"
        },
        {
            "name" : "Plane.001"
        },
        {
            "children" : [
                0,
                1,
                2
            ],
            "name" : "RootNode"
        },
        {
            "children" : [
                3
            ],
            "name" : "51ffead178e1423a8a76200fa8aa197f.fbx"
        },
        {
            "children" : [
                4
            ],
            "name" : "Sketchfab_model"
        },
        {
            "mesh" : 0,
            "name" : "Chair.001"
        },
        {
            "mesh" : 1,
            "name" : "TableCloth"
        },
        {
            "mesh" : 2,
            "name" : "TableRunner"
        },
        {
            "mesh" : 3,
            "name" : "Chairrunner"
        }
    ],
    "materials" : [
        {
            "doubleSided" : true,
            "name" : "TableCloth-material",
            "pbrMetallicRoughness" : {
                "baseColorFactor" : [
                    0.27442455291748047,
                    0.7367145419120789,
                    0.8000000715255737,
                    1
                ],
                "metallicFactor" : 0
            }
        },
        {
            "doubleSided" : true,
            "name" : "charirunnertexture",
            "pbrMetallicRoughness" : {
                "baseColorFactor" : [
                    0.07991933822631836,
                    0.8000000715255737,
                    0,
                    1
                ],
                "metallicFactor" : 0,
                "roughnessFactor" : 0.5
            }
        }
    ],
    "meshes" : [
        {
            "name" : "Cube",
            "primitives" : [
                {
                    "attributes" : {
                        "POSITION" : 0,
                        "NORMAL" : 1,
                        "TEXCOORD_0" : 2
                    },
                    "indices" : 3
                }
            ]
        },
        {
            "name" : "Plane.001",
            "primitives" : [
                {
                    "attributes" : {
                        "POSITION" : 4,
                        "NORMAL" : 5,
                        "TEXCOORD_0" : 6
                    },
                    "indices" : 7,
                    "material" : 0
                }
            ]
        },
        {
            "name" : "Plane",
            "primitives" : [
                {
                    "attributes" : {
                        "POSITION" : 8,
                        "NORMAL" : 9,
                        "TEXCOORD_0" : 10
                    },
                    "indices" : 11
                }
            ]
        },
        {
            "name" : "Plane.003",
            "primitives" : [
                {
                    "attributes" : {
                        "POSITION" : 12,
                        "NORMAL" : 13,
                        "TEXCOORD_0" : 14
                    },
                    "indices" : 15,
                    "material" : 1
                }
            ]
        }
    ],
    "accessors" : [
        {
            "bufferView" : 0,
            "componentType" : 5126,
            "count" : 27552,
            "max" : [
                19.52206802368164,
                68.66938018798828,
                131.50990295410156
            ],
            "min" : [
                -19.477949142456055,
                -21.330623626708984,
                91.50990295410156
            ],
            "type" : "VEC3"
        },
        {
            "bufferView" : 1,
            "componentType" : 5126,
            "count" : 27552,
            "type" : "VEC3"
        },
        {
            "bufferView" : 2,
            "componentType" : 5126,
            "count" : 27552,
            "type" : "VEC2"
        },
        {
            "bufferView" : 3,
            "componentType" : 5123,
            "count" : 31488,
            "type" : "SCALAR"
        },
        {
            "bufferView" : 4,
            "componentType" : 5126,
            "count" : 361,
            "max" : [
                75.82174682617188,
                36.54825973510742,
                76.08961486816406
            ],
            "min" : [
                -76.57826232910156,
                -39.6517448425293,
                -76.31039428710938
            ],
            "type" : "VEC3"
        },
        {
            "bufferView" : 5,
            "componentType" : 5126,
            "count" : 361,
            "type" : "VEC3"
        },
        {
            "bufferView" : 6,
            "componentType" : 5126,
            "count" : 361,
            "type" : "VEC2"
        },
        {
            "bufferView" : 7,
            "componentType" : 5123,
            "count" : 1944,
            "type" : "SCALAR"
        },
        {
            "bufferView" : 8,
            "componentType" : 5126,
            "count" : 32,
            "max" : [
                12.5,
                37.423614501953125,
                39.02616882324219
            ],
            "min" : [
                -12.5,
                36.423614501953125,
                -39.02616882324219
            ],
            "type" : "VEC3"
        },
        {
            "bufferView" : 9,
            "componentType" : 5126,
            "count" : 32,
            "type" : "VEC3"
        },
        {
            "bufferView" : 10,
            "componentType" : 5126,
            "count" : 32,
            "type" : "VEC2"
        },
        {
            "bufferView" : 11,
            "componentType" : 5123,
            "count" : 54,
            "type" : "SCALAR"
        },
        {
            "bufferView" : 12,
            "componentType" : 5126,
            "count" : 12,
            "max" : [
                20.158945083618164,
                62.79582214355469,
                131.66534423828125
            ],
            "min" : [
                -19.84105682373047,
                45.75886535644531,
                125.81534576416016
            ],
            "type" : "VEC3"
        },
        {
            "bufferView" : 13,
            "componentType" : 5126,
            "count" : 12,
            "type" : "VEC3"
        },
        {
            "bufferView" : 14,
            "componentType" : 5126,
            "count" : 12,
            "type" : "VEC2"
        },
        {
            "bufferView" : 15,
            "componentType" : 5123,
            "count" : 30,
            "type" : "SCALAR"
        }
    ],
    "bufferViews" : [
        {
            "buffer" : 0,
            "byteLength" : 330624,
            "byteOffset" : 0
        },
        {
            "buffer" : 0,
            "byteLength" : 330624,
            "byteOffset" : 330624
        },
        {
            "buffer" : 0,
            "byteLength" : 220416,
            "byteOffset" : 661248
        },
        {
            "buffer" : 0,
            "byteLength" : 62976,
            "byteOffset" : 881664
        },
        {
            "buffer" : 0,
            "byteLength" : 4332,
            "byteOffset" : 944640
        },
        {
            "buffer" : 0,
            "byteLength" : 4332,
            "byteOffset" : 948972
        },
        {
            "buffer" : 0,
            "byteLength" : 2888,
            "byteOffset" : 953304
        },
        {
            "buffer" : 0,
            "byteLength" : 3888,
            "byteOffset" : 956192
        },
        {
            "buffer" : 0,
            "byteLength" : 384,
            "byteOffset" : 960080
        },
        {
            "buffer" : 0,
            "byteLength" : 384,
            "byteOffset" : 960464
        },
        {
            "buffer" : 0,
            "byteLength" : 256,
            "byteOffset" : 960848
        },
        {
            "buffer" : 0,
            "byteLength" : 108,
            "byteOffset" : 961104
        },
        {
            "buffer" : 0,
            "byteLength" : 144,
            "byteOffset" : 961212
        },
        {
            "buffer" : 0,
            "byteLength" : 144,
            "byteOffset" : 961356
        },
        {
            "buffer" : 0,
            "byteLength" : 96,
            "byteOffset" : 961500
        },
        {
            "buffer" : 0,
            "byteLength" : 60,
            "byteOffset" : 961596
        }
    ],
    "buffers" : [
        {
            "byteLength" : 961656,
            "uri" : "tableTest3.bin"
        }
    ]
}
